<svg width="171" height="48" viewBox="0 0 171 48" fill="none" xmlns="http://www.w3.org/2000/svg">
<g filter="url(#filter0_d_3_13)">
<path d="M32.6719 31.8471L12.9661 1H5L28.4792 39H36.026L51.1198 13.9647H43.5729L32.6719 31.8471Z" fill="black"/>
<path d="M32.6719 31.8471L12.9661 1H5L28.4792 39H36.026L51.1198 13.9647H43.5729L32.6719 31.8471Z" stroke="black"/>
</g>
<g filter="url(#filter1_d_3_13)">
<path d="M50.6029 11.3636H80.4688L76.793 16.4822H46.9271L50.6029 11.3636Z" fill="url(#paint0_linear_3_13)"/>
<path d="M50.6029 20.4634H80.4688L76.3335 25.582H46.9271L50.6029 20.4634Z" fill="url(#paint1_linear_3_13)"/>
<path d="M50.6029 29.5631H80.4688L76.793 34.6818H46.9271L50.6029 29.5631Z" fill="url(#paint2_linear_3_13)"/>
</g>
<g filter="url(#filter2_d_3_13)">
<path d="M85.5 39H88.6335H105.353C106.717 39 108.057 38.6443 109.242 37.9681L109.451 37.8484C110.189 37.4275 110.838 36.8682 111.364 36.2013C112.074 35.2999 112.538 34.2288 112.708 33.0936L112.872 32.0047C113.006 31.1084 112.995 30.1964 112.839 29.3037L112.79 29.0264C112.566 27.7473 112.008 26.5501 111.172 25.5561C110.365 24.5959 109.326 23.8578 108.154 23.4116L108.107 23.3938C107.248 23.0669 106.337 22.8993 105.418 22.8993H98.034H93.5691C93.2168 22.8993 92.878 22.7639 92.6229 22.5211C92.1308 22.0529 92.0552 21.2953 92.4449 20.7391L92.5481 20.5918C92.8441 20.1693 93.3275 19.9177 93.8434 19.9177H98.034H113.701H134.135L137.909 13.9545H93.0204C91.7923 13.9545 90.5896 14.3038 89.5527 14.9616L89.4279 15.0408C88.1015 15.8822 87.0976 17.1461 86.5783 18.6285L86.5387 18.7415C86.266 19.5201 86.1267 20.3391 86.1267 21.164V21.4085C86.1267 22.3953 86.2933 23.375 86.6195 24.3063L86.8637 25.0033C87.2031 25.9721 87.7679 26.8463 88.5115 27.5538C89.0075 28.0258 89.5752 28.4161 90.1934 28.7102L90.2983 28.7601C91.2652 29.2202 92.3226 29.4589 93.3934 29.4589H104.301H104.731C105.247 29.4589 105.731 29.7104 106.027 30.1329L106.13 30.2802C106.52 30.8365 106.444 31.5941 105.952 32.0622C105.697 32.305 105.358 32.4405 105.006 32.4405H104.301H89.2602L85.5 39Z" fill="black"/>
<path d="M85.5 39H88.6335H105.353C106.717 39 108.057 38.6443 109.242 37.9681L109.451 37.8484C110.189 37.4275 110.838 36.8682 111.364 36.2013C112.074 35.2999 112.538 34.2288 112.708 33.0936L112.872 32.0047C113.006 31.1084 112.995 30.1964 112.839 29.3037L112.79 29.0264C112.566 27.7473 112.008 26.5501 111.172 25.5561C110.365 24.5959 109.326 23.8578 108.154 23.4116L108.107 23.3938C107.248 23.0669 106.337 22.8993 105.418 22.8993H98.034H93.5691C93.2168 22.8993 92.878 22.7639 92.6229 22.5211C92.1308 22.0529 92.0552 21.2953 92.4449 20.7391L92.5481 20.5918C92.8441 20.1693 93.3275 19.9177 93.8434 19.9177H98.034H113.701H134.135L137.909 13.9545H93.0204C91.7923 13.9545 90.5896 14.3038 89.5527 14.9616L89.4279 15.0408C88.1015 15.8822 87.0976 17.1461 86.5783 18.6285L86.5387 18.7415C86.266 19.5201 86.1267 20.3391 86.1267 21.164V21.4085C86.1267 22.3953 86.2933 23.375 86.6195 24.3063L86.8637 25.0033C87.2031 25.9721 87.7679 26.8463 88.5115 27.5538C89.0075 28.0258 89.5752 28.4161 90.1934 28.7102L90.2983 28.7601C91.2652 29.2202 92.3226 29.4589 93.3934 29.4589H104.301H104.731C105.247 29.4589 105.731 29.7104 106.027 30.1329L106.13 30.2802C106.52 30.8365 106.444 31.5941 105.952 32.0622C105.697 32.305 105.358 32.4405 105.006 32.4405H104.301H89.2602L85.5 39Z" stroke="black"/>
</g>
<g filter="url(#filter3_d_3_13)">
<path d="M117.365 5.31818V31.4534C117.365 32.4435 117.569 33.4231 117.964 34.331C118.668 35.9479 119.94 37.2509 121.539 37.9933L121.998 38.2062C123.125 38.7291 124.352 39 125.594 39H137.665L148.238 21.7273H150.906L154.581 32.9545H148.238L145.277 39H166L154.581 13.9545H144.008L131.744 32.9545H124.911V13.9545L124.911 5.31818H117.365Z" fill="black"/>
<path d="M117.365 5.31818V31.4534C117.365 32.4435 117.569 33.4231 117.964 34.331C118.668 35.9479 119.94 37.2509 121.539 37.9933L121.998 38.2062C123.125 38.7291 124.352 39 125.594 39H137.665L148.238 21.7273H150.906L154.581 32.9545H148.238L145.277 39H166L154.581 13.9545H144.008L131.744 32.9545H124.911V13.9545L124.911 5.31818H117.365Z" stroke="black"/>
</g>
<defs>
<filter id="filter0_d_3_13" x="0.103333" y="0.5" width="55.9017" height="47" filterUnits="userSpaceOnUse" color-interpolation-filters="sRGB">
<feFlood flood-opacity="0" result="BackgroundImageFix"/>
<feColorMatrix in="SourceAlpha" type="matrix" values="0 0 0 0 0 0 0 0 0 0 0 0 0 0 0 0 0 0 127 0" result="hardAlpha"/>
<feOffset dy="4"/>
<feGaussianBlur stdDeviation="2"/>
<feComposite in2="hardAlpha" operator="out"/>
<feColorMatrix type="matrix" values="0 0 0 0 0 0 0 0 0 0 0 0 0 0 0 0 0 0 0.25 0"/>
<feBlend mode="normal" in2="BackgroundImageFix" result="effect1_dropShadow_3_13"/>
<feBlend mode="normal" in="SourceGraphic" in2="effect1_dropShadow_3_13" result="shape"/>
</filter>
<filter id="filter1_d_3_13" x="42.9271" y="11.3636" width="41.5417" height="31.3182" filterUnits="userSpaceOnUse" color-interpolation-filters="sRGB">
<feFlood flood-opacity="0" result="BackgroundImageFix"/>
<feColorMatrix in="SourceAlpha" type="matrix" values="0 0 0 0 0 0 0 0 0 0 0 0 0 0 0 0 0 0 127 0" result="hardAlpha"/>
<feOffset dy="4"/>
<feGaussianBlur stdDeviation="2"/>
<feComposite in2="hardAlpha" operator="out"/>
<feColorMatrix type="matrix" values="0 0 0 0 0 0 0 0 0 0 0 0 0 0 0 0 0 0 0.25 0"/>
<feBlend mode="normal" in2="BackgroundImageFix" result="effect1_dropShadow_3_13"/>
<feBlend mode="normal" in="SourceGraphic" in2="effect1_dropShadow_3_13" result="shape"/>
</filter>
<filter id="filter2_d_3_13" x="80.637" y="13.4545" width="62.1799" height="34.0455" filterUnits="userSpaceOnUse" color-interpolation-filters="sRGB">
<feFlood flood-opacity="0" result="BackgroundImageFix"/>
<feColorMatrix in="SourceAlpha" type="matrix" values="0 0 0 0 0 0 0 0 0 0 0 0 0 0 0 0 0 0 127 0" result="hardAlpha"/>
<feOffset dy="4"/>
<feGaussianBlur stdDeviation="2"/>
<feComposite in2="hardAlpha" operator="out"/>
<feColorMatrix type="matrix" values="0 0 0 0 0 0 0 0 0 0 0 0 0 0 0 0 0 0 0.25 0"/>
<feBlend mode="normal" in2="BackgroundImageFix" result="effect1_dropShadow_3_13"/>
<feBlend mode="normal" in="SourceGraphic" in2="effect1_dropShadow_3_13" result="shape"/>
</filter>
<filter id="filter3_d_3_13" x="112.865" y="4.81818" width="57.9129" height="42.6818" filterUnits="userSpaceOnUse" color-interpolation-filters="sRGB">
<feFlood flood-opacity="0" result="BackgroundImageFix"/>
<feColorMatrix in="SourceAlpha" type="matrix" values="0 0 0 0 0 0 0 0 0 0 0 0 0 0 0 0 0 0 127 0" result="hardAlpha"/>
<feOffset dy="4"/>
<feGaussianBlur stdDeviation="2"/>
<feComposite in2="hardAlpha" operator="out"/>
<feColorMatrix type="matrix" values="0 0 0 0 0 0 0 0 0 0 0 0 0 0 0 0 0 0 0.25 0"/>
<feBlend mode="normal" in2="BackgroundImageFix" result="effect1_dropShadow_3_13"/>
<feBlend mode="normal" in="SourceGraphic" in2="effect1_dropShadow_3_13" result="shape"/>
</filter>
<linearGradient id="paint0_linear_3_13" x1="72.4667" y1="26.3333" x2="68.3552" y2="6.40764" gradientUnits="userSpaceOnUse">
<stop stop-color="#FF0000"/>
<stop offset="1" stop-color="#FF0000"/>
</linearGradient>
<linearGradient id="paint1_linear_3_13" x1="72.4667" y1="26.3333" x2="68.3552" y2="6.40764" gradientUnits="userSpaceOnUse">
<stop stop-color="#FF0000"/>
<stop offset="1" stop-color="#FF0000"/>
</linearGradient>
<linearGradient id="paint2_linear_3_13" x1="72.4667" y1="26.3333" x2="68.3552" y2="6.40764" gradientUnits="userSpaceOnUse">
<stop stop-color="#FF0000"/>
<stop offset="1" stop-color="#FF0000"/>
</linearGradient>
</defs>
</svg>
